<svg width="68" height="11" viewBox="0 0 68 11" fill="none" xmlns="http://www.w3.org/2000/svg">
<path d="M0.00426134 0.318182H2.26136L5.28409 7.69602H5.40341L8.42614 0.318182H10.6832V10.5H8.91335V3.50497H8.81889L6.00497 10.4702H4.68253L1.86861 3.49006H1.77415V10.5H0.00426134V0.318182ZM15.9929 10.6491C15.2273 10.6491 14.5661 10.4901 14.0092 10.1719C13.4557 9.85038 13.0298 9.39631 12.7315 8.80966C12.4332 8.2197 12.2841 7.52533 12.2841 6.72656C12.2841 5.94105 12.4332 5.25166 12.7315 4.65838C13.0331 4.06179 13.4541 3.59777 13.9943 3.26633C14.5346 2.93158 15.1693 2.7642 15.8984 2.7642C16.3691 2.7642 16.8132 2.84044 17.2308 2.9929C17.6518 3.14205 18.023 3.37405 18.3445 3.68892C18.6693 4.00379 18.9245 4.40483 19.1101 4.89205C19.2957 5.37595 19.3885 5.95265 19.3885 6.62216V7.17401H13.1293V5.96094H17.6634C17.66 5.61624 17.5855 5.30966 17.4396 5.04119C17.2938 4.76941 17.09 4.55563 16.8281 4.39986C16.5696 4.24408 16.268 4.16619 15.9233 4.16619C15.5554 4.16619 15.2322 4.25568 14.9538 4.43466C14.6754 4.61032 14.4583 4.84233 14.3026 5.13068C14.1501 5.41572 14.0722 5.72893 14.0689 6.07031V7.12926C14.0689 7.57339 14.1501 7.95455 14.3125 8.27273C14.4749 8.58759 14.7019 8.82955 14.9936 8.99858C15.2853 9.1643 15.6267 9.24716 16.0178 9.24716C16.2796 9.24716 16.5166 9.2107 16.7287 9.13778C16.9408 9.06155 17.1248 8.95052 17.2805 8.80469C17.4363 8.65885 17.554 8.47822 17.6335 8.26278L19.3139 8.4517C19.2079 8.89583 19.0057 9.28362 18.7074 9.61506C18.4124 9.94318 18.0346 10.1984 17.5739 10.3807C17.1132 10.5597 16.5862 10.6491 15.9929 10.6491ZM22.2186 2.86364L23.7598 5.68253L25.3258 2.86364H27.2299L24.9281 6.68182L27.2697 10.5H25.3755L23.7598 7.75071L22.1589 10.5H20.2498L22.5765 6.68182L20.3095 2.86364H22.2186ZM30.7921 10.6541C30.3082 10.6541 29.8723 10.5679 29.4846 10.3956C29.1001 10.2199 28.7952 9.96141 28.5698 9.62003C28.3477 9.27865 28.2367 8.85772 28.2367 8.35724C28.2367 7.92637 28.3162 7.57008 28.4753 7.28835C28.6344 7.00663 28.8515 6.78125 29.1266 6.61222C29.4017 6.44318 29.7116 6.31558 30.0563 6.2294C30.4043 6.13991 30.7639 6.07528 31.1351 6.03551C31.5826 5.98911 31.9455 5.94768 32.2239 5.91122C32.5023 5.87145 32.7045 5.81179 32.8304 5.73224C32.9597 5.64938 33.0243 5.52178 33.0243 5.34943V5.3196C33.0243 4.94508 32.9133 4.65507 32.6912 4.44957C32.4692 4.24408 32.1493 4.14134 31.7317 4.14134C31.2909 4.14134 30.9412 4.23745 30.6827 4.42969C30.4275 4.62192 30.2551 4.84896 30.1657 5.1108L28.4853 4.87216C28.6178 4.40814 28.8366 4.02036 29.1415 3.70881C29.4464 3.39394 29.8193 3.15862 30.2601 3.00284C30.7009 2.84375 31.1882 2.7642 31.7218 2.7642C32.0897 2.7642 32.4559 2.80729 32.8205 2.89347C33.1851 2.97964 33.5182 3.12216 33.8198 3.32102C34.1214 3.51657 34.3633 3.78338 34.5456 4.12145C34.7312 4.45952 34.824 4.8821 34.824 5.3892V10.5H33.0939V9.45099H33.0343C32.9249 9.66312 32.7708 9.86198 32.5719 10.0476C32.3764 10.2299 32.1294 10.3774 31.8311 10.4901C31.5362 10.5994 31.1898 10.6541 30.7921 10.6541ZM31.2594 9.33168C31.6207 9.33168 31.9339 9.26042 32.199 9.1179C32.4642 8.97206 32.668 8.77983 32.8105 8.54119C32.9564 8.30256 33.0293 8.04238 33.0293 7.76065V6.8608C32.973 6.9072 32.8768 6.95028 32.7409 6.99006C32.6084 7.02983 32.4592 7.06463 32.2935 7.09446C32.1278 7.12429 31.9637 7.1508 31.8013 7.17401C31.6389 7.19721 31.498 7.21709 31.3787 7.23366C31.1103 7.27012 30.87 7.32978 30.6578 7.41264C30.4457 7.4955 30.2784 7.61151 30.1557 7.76065C30.0331 7.90649 29.9718 8.09541 29.9718 8.32741C29.9718 8.65885 30.0927 8.90909 30.3347 9.07812C30.5766 9.24716 30.8849 9.33168 31.2594 9.33168ZM41.8787 5.93608V7.41264H37.812V5.93608H41.8787ZM38.3688 2.86364V10.5H36.6337V2.86364H38.3688ZM43.057 2.86364V10.5H41.3269V2.86364H43.057ZM46.6129 8.06392L49.6705 2.86364H51.5199V10.5H49.7798V5.29474L46.7322 10.5H44.8778V2.86364H46.6129V8.06392ZM53.3681 10.5V2.86364H55.1678V5.94602H55.824L58.1209 2.86364H60.2885L57.4597 6.61222L60.3184 10.5H58.1408L56.0478 7.62145H55.1678V10.5H53.3681ZM63.5362 10.6541C63.0523 10.6541 62.6165 10.5679 62.2287 10.3956C61.8442 10.2199 61.5393 9.96141 61.3139 9.62003C61.0919 9.27865 60.9808 8.85772 60.9808 8.35724C60.9808 7.92637 61.0604 7.57008 61.2195 7.28835C61.3786 7.00663 61.5956 6.78125 61.8707 6.61222C62.1458 6.44318 62.4557 6.31558 62.8004 6.2294C63.1484 6.13991 63.508 6.07528 63.8793 6.03551C64.3267 5.98911 64.6896 5.94768 64.968 5.91122C65.2464 5.87145 65.4486 5.81179 65.5746 5.73224C65.7038 5.64938 65.7685 5.52178 65.7685 5.34943V5.3196C65.7685 4.94508 65.6574 4.65507 65.4354 4.44957C65.2133 4.24408 64.8935 4.14134 64.4759 4.14134C64.035 4.14134 63.6854 4.23745 63.4268 4.42969C63.1716 4.62192 62.9993 4.84896 62.9098 5.1108L61.2294 4.87216C61.362 4.40814 61.5807 4.02036 61.8857 3.70881C62.1906 3.39394 62.5634 3.15862 63.0043 3.00284C63.4451 2.84375 63.9323 2.7642 64.4659 2.7642C64.8338 2.7642 65.2 2.80729 65.5646 2.89347C65.9292 2.97964 66.2623 3.12216 66.5639 3.32102C66.8655 3.51657 67.1075 3.78338 67.2898 4.12145C67.4754 4.45952 67.5682 4.8821 67.5682 5.3892V10.5H65.8381V9.45099H65.7784C65.669 9.66312 65.5149 9.86198 65.3161 10.0476C65.1205 10.2299 64.8736 10.3774 64.5753 10.4901C64.2803 10.5994 63.9339 10.6541 63.5362 10.6541ZM64.0036 9.33168C64.3648 9.33168 64.678 9.26042 64.9432 9.1179C65.2083 8.97206 65.4122 8.77983 65.5547 8.54119C65.7005 8.30256 65.7734 8.04238 65.7734 7.76065V6.8608C65.7171 6.9072 65.621 6.95028 65.4851 6.99006C65.3525 7.02983 65.2034 7.06463 65.0376 7.09446C64.8719 7.12429 64.7079 7.1508 64.5455 7.17401C64.383 7.19721 64.2422 7.21709 64.1229 7.23366C63.8544 7.27012 63.6141 7.32978 63.402 7.41264C63.1899 7.4955 63.0225 7.61151 62.8999 7.76065C62.7772 7.90649 62.7159 8.09541 62.7159 8.32741C62.7159 8.65885 62.8369 8.90909 63.0788 9.07812C63.3208 9.24716 63.629 9.33168 64.0036 9.33168Z" fill="#A6AFBA"/>
</svg>
