<svg width="1440" height="100" viewBox="0 0 1440 100" fill="none" xmlns="http://www.w3.org/2000/svg">
<rect width="1440" height="100" fill="#6672DE"/>
<g clip-path="url(#clip0_13_1760)">
<path d="M866.944 48.6499C866.944 48.0983 866.888 47.3789 866.774 46.5156C866.689 45.6523 866.548 44.8849 866.378 44.2134C866.18 43.446 865.755 42.8225 865.103 42.295C864.452 41.7674 863.687 41.4796 862.808 41.3837C860.089 41.1199 855.953 41 850.429 41C844.905 41 840.769 41.1199 838.049 41.3837C837.171 41.4796 836.406 41.7674 835.755 42.295C835.103 42.8225 834.678 43.446 834.48 44.2134C834.282 44.8849 834.168 45.6523 834.055 46.5156C833.97 47.3789 833.913 48.0983 833.885 48.6499C833.885 49.2254 833.885 49.9928 833.885 51C833.885 52.0072 833.885 52.7746 833.913 53.3501C833.913 53.9017 833.97 54.6211 834.083 55.4844C834.14 56.3477 834.282 57.1151 834.452 57.7866C834.65 58.554 835.075 59.1775 835.726 59.705C836.378 60.2326 837.143 60.5204 838.021 60.6163C840.741 60.8801 844.877 61 850.401 61C855.925 61 860.061 60.8801 862.78 60.6163C863.658 60.5444 864.423 60.2326 865.075 59.705C865.726 59.1775 866.151 58.554 866.35 57.7866C866.548 57.1151 866.661 56.3477 866.774 55.4844C866.859 54.6211 866.916 53.9017 866.944 53.3501C866.944 52.7986 866.973 52.0072 866.973 51C866.973 49.9928 866.973 49.2254 866.944 48.6499ZM856.973 51.8393L847.511 56.8513C847.341 56.9472 847.143 57.0192 846.888 57.0192C846.69 57.0192 846.52 56.9712 846.321 56.8993C845.925 56.7074 845.698 56.4197 845.698 56.012V46.012C845.698 45.6043 845.896 45.3165 846.321 45.1247C846.746 44.9329 847.143 44.9568 847.511 45.1487L852.242 47.6547L856.973 50.1607C857.341 50.3285 857.539 50.6163 857.539 51C857.511 51.3837 857.341 51.6715 856.973 51.8393Z" fill="black"/>
</g>
<g clip-path="url(#clip1_13_1760)">
<path d="M771.531 46.1494H765.696V60.9999H771.531V46.1494Z" fill="black"/>
<path d="M790.694 47.5057C789.473 46.3792 787.844 45.8045 785.835 45.8045C785.103 45.8045 784.424 45.8735 783.8 46.0344C783.203 46.1953 782.687 46.4022 782.253 46.6781C781.845 46.9539 781.493 47.2068 781.248 47.4597C781.004 47.6896 780.787 47.9424 780.57 48.2413V46.1263H774.761L774.788 46.839C774.788 47.3217 774.816 48.793 774.816 51.2758C774.816 53.7585 774.816 56.9769 774.788 60.9769H780.597V52.7011C780.597 52.1953 780.651 51.7815 780.787 51.4827C781.031 50.9769 781.411 50.5401 781.9 50.1953C782.388 49.8505 783.013 49.6896 783.773 49.6896C784.777 49.6896 785.537 49.9884 785.998 50.5861C786.487 51.1838 786.704 52.0114 786.704 53.0459V60.9769H792.513V52.4712C792.54 50.2873 791.943 48.6321 790.694 47.5057Z" fill="black"/>
<path d="M768.654 39C767.677 39 766.89 39.2529 766.293 39.7356C765.668 40.2184 765.37 40.8161 765.37 41.5517C765.37 42.2874 765.668 42.8851 766.266 43.3908C766.863 43.8736 767.623 44.1264 768.6 44.1264H768.627C769.631 44.1264 770.418 43.8736 771.016 43.3908C771.613 42.908 771.911 42.2874 771.911 41.5517C771.911 40.8161 771.586 40.1954 771.016 39.7126C770.418 39.2529 769.631 39 768.654 39Z" fill="black"/>
</g>
<g clip-path="url(#clip2_13_1760)">
<path d="M603.531 43.3741C602.381 43.7818 601.202 44.0456 600.052 44.1655C601.375 43.518 602.237 42.5827 602.726 41.3837C601.518 41.9592 600.224 42.3669 598.873 42.5827C597.665 41.5276 596.199 41 594.444 41C592.777 41 591.339 41.5036 590.16 42.4868C588.981 43.47 588.377 44.6691 588.377 46.06C588.377 46.4436 588.434 46.8273 588.521 47.211C586.048 47.1151 583.718 46.5875 581.562 45.6523C579.405 44.717 577.565 43.47 576.041 41.9353C575.494 42.7266 575.207 43.5659 575.207 44.4772C575.207 45.3405 575.437 46.1559 575.926 46.8753C576.414 47.6187 577.076 48.2182 577.881 48.6739C576.903 48.6499 575.983 48.4341 575.149 48.0264V48.0983C575.149 49.3213 575.609 50.3765 576.529 51.3118C577.45 52.223 578.6 52.8225 580.009 53.0623C579.491 53.1823 578.945 53.2302 578.427 53.2302C578.082 53.2302 577.708 53.2062 577.277 53.1583C577.651 54.1655 578.37 55.0048 579.405 55.6523C580.44 56.2998 581.619 56.6355 582.942 56.6595C580.757 58.0983 578.226 58.8177 575.437 58.8177C574.89 58.8177 574.402 58.7938 573.97 58.7458C576.788 60.2566 579.894 61 583.258 61C585.415 61 587.428 60.7122 589.326 60.1607C591.224 59.5851 592.834 58.8417 594.157 57.8825C595.48 56.9233 596.659 55.8201 597.608 54.5971C598.585 53.3501 599.304 52.0552 599.764 50.7122C600.224 49.3693 600.483 48.0024 600.483 46.6595C600.483 46.3717 600.483 46.1559 600.454 46.012C601.691 45.2686 602.697 44.4053 603.531 43.3741Z" fill="black"/>
</g>
<g clip-path="url(#clip3_13_1760)">
<path d="M652.73 46.2104V44.3054C652.73 44.0186 652.753 43.7933 652.777 43.6499C652.8 43.486 652.871 43.3426 652.989 43.1993C653.107 43.0559 653.272 42.9534 653.508 42.892C653.743 42.8305 654.074 42.8101 654.474 42.8101H656.667V39H653.154C651.126 39 649.688 39.4097 648.815 40.2495C647.943 41.0894 647.495 42.298 647.495 43.9367V46.2104H644.878V50H647.495V61H652.73V50H656.219L656.691 46.2104H652.73Z" fill="black"/>
</g>
<g clip-path="url(#clip4_13_1760)">
<path d="M716.855 40H705.206C701.246 40 698.036 42.7175 698.036 46.0695V55.9305C698.036 59.2825 701.246 62 705.206 62H716.855C720.814 62 724.025 59.2825 724.025 55.9305V46.0695C724.025 42.7175 720.814 40 716.855 40ZM721.718 55.9305C721.718 58.2086 719.527 60.0473 716.855 60.0473H705.206C702.515 60.0473 700.343 58.1923 700.343 55.9305V46.0695C700.343 43.8077 702.534 41.9527 705.206 41.9527H716.855C719.546 41.9527 721.718 43.8077 721.718 46.0695V55.9305Z" fill="black"/>
<path d="M711.03 45.3372C707.34 45.3372 704.322 47.8757 704.322 50.9999C704.322 54.1242 707.32 56.6789 711.03 56.6789C714.721 56.6789 717.739 54.1405 717.739 50.9999C717.739 47.8757 714.721 45.3372 711.03 45.3372ZM711.03 54.7263C708.608 54.7263 706.628 53.0665 706.628 51.0162C706.648 48.9496 708.608 47.2899 711.03 47.2899C713.452 47.2899 715.432 48.9496 715.432 50.9999C715.432 53.0502 713.452 54.7263 711.03 54.7263Z" fill="black"/>
<path d="M718.008 43.6774C717.566 43.6774 717.124 43.8239 716.816 44.1005C716.509 44.3609 716.316 44.7351 716.316 45.1094C716.316 45.4836 716.489 45.8579 716.816 46.1183C717.124 46.3786 717.566 46.5413 718.008 46.5413C718.45 46.5413 718.892 46.3949 719.2 46.1183C719.507 45.8579 719.7 45.4836 719.7 45.1094C719.7 44.7351 719.527 44.3609 719.2 44.1005C718.892 43.8239 718.469 43.6774 718.008 43.6774Z" fill="black"/>
</g>
<defs>
<clipPath id="clip0_13_1760">
<rect width="33.0876" height="20" fill="white" transform="translate(833.885 41)"/>
</clipPath>
<clipPath id="clip1_13_1760">
<rect width="27.1698" height="22" fill="white" transform="translate(765.37 39)"/>
</clipPath>
<clipPath id="clip2_13_1760">
<rect width="29.5324" height="20" fill="white" transform="translate(574 41)"/>
</clipPath>
<clipPath id="clip3_13_1760">
<rect width="11.813" height="22" fill="white" transform="translate(644.878 39)"/>
</clipPath>
<clipPath id="clip4_13_1760">
<rect width="25.9885" height="22" fill="white" transform="translate(698.036 40)"/>
</clipPath>
</defs>
</svg>
