<svg width="74" height="16" viewBox="0 0 74 16" fill="none" xmlns="http://www.w3.org/2000/svg">
<path d="M0.434659 15V0.454545H3.0696V12.7912H9.47585V15H0.434659ZM17.9787 15.2131C16.8849 15.2131 15.9403 14.9858 15.1449 14.5312C14.3542 14.072 13.7457 13.4233 13.3196 12.5852C12.8935 11.7424 12.6804 10.7505 12.6804 9.60938C12.6804 8.48722 12.8935 7.50237 13.3196 6.65483C13.7505 5.80256 14.3518 5.13968 15.1236 4.66619C15.8954 4.18797 16.8021 3.94886 17.8438 3.94886C18.5161 3.94886 19.1506 4.05777 19.7472 4.27557C20.3485 4.48864 20.8788 4.82008 21.3381 5.26989C21.8021 5.7197 22.1667 6.29261 22.4318 6.98864C22.697 7.67992 22.8295 8.50379 22.8295 9.46023V10.2486H13.8878V8.51562H20.3651C20.3603 8.0232 20.2538 7.58523 20.0455 7.2017C19.8371 6.81345 19.5459 6.50805 19.1719 6.28551C18.8026 6.06297 18.3717 5.9517 17.8793 5.9517C17.3537 5.9517 16.892 6.07955 16.4943 6.33523C16.0966 6.58617 15.7865 6.91761 15.5639 7.32955C15.3461 7.73674 15.2348 8.18419 15.2301 8.67188V10.1847C15.2301 10.8191 15.3461 11.3636 15.5781 11.8182C15.8101 12.268 16.1345 12.6136 16.5511 12.8551C16.9678 13.0919 17.4555 13.2102 18.0142 13.2102C18.3883 13.2102 18.7268 13.1581 19.0298 13.054C19.3329 12.9451 19.5956 12.7865 19.8182 12.5781C20.0407 12.3698 20.2088 12.1117 20.3224 11.804L22.723 12.0739C22.5715 12.7083 22.2827 13.2623 21.8565 13.7358C21.4351 14.2045 20.8954 14.5691 20.2372 14.8295C19.5791 15.0852 18.8262 15.2131 17.9787 15.2131ZM35.9364 4.09091L32.0515 15H29.2106L25.3256 4.09091H28.0671L30.5742 12.1946H30.6879L33.2021 4.09091H35.9364ZM43.674 15.2131C42.5803 15.2131 41.6357 14.9858 40.8402 14.5312C40.0495 14.072 39.4411 13.4233 39.0149 12.5852C38.5888 11.7424 38.3757 10.7505 38.3757 9.60938C38.3757 8.48722 38.5888 7.50237 39.0149 6.65483C39.4458 5.80256 40.0471 5.13968 40.8189 4.66619C41.5907 4.18797 42.4974 3.94886 43.5391 3.94886C44.2114 3.94886 44.8459 4.05777 45.4425 4.27557C46.0438 4.48864 46.5741 4.82008 47.0334 5.26989C47.4974 5.7197 47.862 6.29261 48.1271 6.98864C48.3923 7.67992 48.5249 8.50379 48.5249 9.46023V10.2486H39.5831V8.51562H46.0604C46.0556 8.0232 45.9491 7.58523 45.7408 7.2017C45.5324 6.81345 45.2412 6.50805 44.8672 6.28551C44.4979 6.06297 44.067 5.9517 43.5746 5.9517C43.049 5.9517 42.5874 6.07955 42.1896 6.33523C41.7919 6.58617 41.4818 6.91761 41.2592 7.32955C41.0414 7.73674 40.9302 8.18419 40.9254 8.67188V10.1847C40.9254 10.8191 41.0414 11.3636 41.2734 11.8182C41.5054 12.268 41.8298 12.6136 42.2464 12.8551C42.6631 13.0919 43.1508 13.2102 43.7095 13.2102C44.0836 13.2102 44.4221 13.1581 44.7251 13.054C45.0282 12.9451 45.291 12.7865 45.5135 12.5781C45.736 12.3698 45.9041 12.1117 46.0178 11.804L48.4183 12.0739C48.2668 12.7083 47.978 13.2623 47.5518 13.7358C47.1304 14.2045 46.5907 14.5691 45.9325 14.8295C45.2744 15.0852 44.5215 15.2131 43.674 15.2131ZM52.1999 15V4.09091H54.6928V5.90909H54.8065C55.0053 5.27936 55.3462 4.79403 55.8292 4.45312C56.3169 4.10748 56.8732 3.93466 57.4982 3.93466C57.6403 3.93466 57.7989 3.94176 57.9741 3.95597C58.154 3.96544 58.3031 3.98201 58.4215 4.00568V6.37074C58.3126 6.33286 58.1398 6.29972 57.9031 6.27131C57.671 6.23816 57.4461 6.22159 57.2283 6.22159C56.7596 6.22159 56.3382 6.32339 55.9641 6.52699C55.5948 6.72585 55.3036 7.00284 55.0906 7.35795C54.8775 7.71307 54.771 8.12263 54.771 8.58665V15H52.1999Z" fill="black"/>
<path d="M60.7489 0.454545H63.7248L67.283 6.8892H67.4251L70.9833 0.454545H73.9592L68.668 9.57386V15H66.0401V9.57386L60.7489 0.454545Z" fill="#0A20E6"/>
</svg>
