<svg width="116" height="20" viewBox="0 0 116 20" fill="none" xmlns="http://www.w3.org/2000/svg">
<path d="M14.6359 0.837128L12.3215 0.833313C9.72134 0.833313 8.04102 2.60422 8.04102 5.34517V7.42544H5.71401C5.51293 7.42544 5.3501 7.5929 5.3501 7.79946V10.8135C5.3501 11.0201 5.51312 11.1874 5.71401 11.1874H8.04102V18.7928C8.04102 18.9994 8.20386 19.1666 8.40494 19.1666H11.441C11.6421 19.1666 11.8049 18.9992 11.8049 18.7928V11.1874H14.5258C14.7268 11.1874 14.8897 11.0201 14.8897 10.8135L14.8908 7.79946C14.8908 7.70028 14.8524 7.6053 14.7842 7.53511C14.7161 7.46492 14.6232 7.42544 14.5267 7.42544H11.8049V5.66197C11.8049 4.81437 12.0016 4.38409 13.0764 4.38409L14.6355 4.38352C14.8364 4.38352 14.9992 4.21606 14.9992 4.00969V1.21095C14.9992 1.00478 14.8366 0.837509 14.6359 0.837128Z" fill="#787A80"/>
<path d="M42.1761 8.75232H50.4056C50.4964 9.25933 50.5418 9.74364 50.5418 10.2053C50.5418 11.8474 50.1975 13.3135 49.5089 14.6038C48.8203 15.894 47.8384 16.9024 46.5633 17.6288C45.2882 18.3553 43.8258 18.7185 42.1761 18.7185C40.988 18.7185 39.8567 18.4896 38.7821 18.0318C37.7076 17.574 36.7806 16.9553 36.0011 16.1759C35.2217 15.3965 34.6031 14.4695 34.1452 13.3949C33.6874 12.3203 33.4585 11.189 33.4585 10.0009C33.4585 8.81285 33.6874 7.68153 34.1452 6.60697C34.6031 5.5324 35.2217 4.6054 36.0011 3.82596C36.7806 3.04652 37.7076 2.42789 38.7821 1.97006C39.8567 1.51224 40.988 1.28333 42.1761 1.28333C44.4463 1.28333 46.3949 2.04385 48.0219 3.56489L45.6495 5.84645C44.7187 4.94593 43.5609 4.49567 42.1761 4.49567C41.1999 4.49567 40.2975 4.74161 39.4689 5.23349C38.6403 5.72537 37.9838 6.39319 37.4995 7.23695C37.0152 8.08071 36.773 9.00204 36.773 10.0009C36.773 10.9998 37.0152 11.9212 37.4995 12.7649C37.9838 13.6087 38.6403 14.2765 39.4689 14.7684C40.2975 15.2603 41.1999 15.5062 42.1761 15.5062C42.8345 15.5062 43.4399 15.4154 43.9923 15.2338C44.5447 15.0521 44.9987 14.8251 45.3544 14.5527C45.7101 14.2803 46.0203 13.97 46.2852 13.6219C46.55 13.2738 46.7449 12.9446 46.8698 12.6344C46.9946 12.3241 47.0798 12.029 47.1252 11.749H42.1761V8.75232Z" fill="#787A80"/>
<path d="M82.75 4.81042C82.1059 5.0837 81.4148 5.26904 80.6887 5.35178C81.4301 4.92665 81.9976 4.25233 82.2666 3.45131C81.5711 3.845 80.8035 4.13088 79.9855 4.28585C79.3305 3.61676 78.3988 3.20001 77.3653 3.20001C75.3827 3.20001 73.7752 4.73923 73.7752 6.63656C73.7752 6.90565 73.8069 7.16847 73.8682 7.41979C70.885 7.27632 68.2397 5.90778 66.4693 3.82825C66.1598 4.33505 65.9837 4.92558 65.9837 5.55595C65.9837 6.74859 66.618 7.80092 67.5803 8.41658C66.992 8.39775 66.4387 8.24278 65.9542 7.98519V8.02812C65.9542 9.69298 67.1921 11.0825 68.8335 11.3987C68.5328 11.4762 68.2157 11.5191 67.8876 11.5191C67.6558 11.5191 67.4316 11.4971 67.2118 11.4552C67.6689 12.8217 68.9943 13.8154 70.5646 13.8426C69.3366 14.7641 67.7881 15.3117 66.1062 15.3117C65.8165 15.3117 65.531 15.2949 65.25 15.2646C66.8389 16.2415 68.7253 16.8111 70.7527 16.8111C77.3566 16.8111 80.9665 11.5736 80.9665 7.03132L80.9544 6.58631C81.6597 6.10462 82.2699 5.49941 82.75 4.81042Z" fill="#0A20E6"/>
<path d="M114.329 18.3334L114.333 18.3327V12.2202C114.333 9.22988 113.689 6.92641 110.194 6.92641C108.513 6.92641 107.385 7.84863 106.925 8.72294H106.876V7.20558H103.562V18.3327H107.013V12.8229C107.013 11.3722 107.288 9.96947 109.085 9.96947C110.855 9.96947 110.881 11.625 110.881 12.916V18.3334H114.329Z" fill="#787A80"/>
<path d="M97.9415 7.20627H101.397V18.3333H97.9415V7.20627Z" fill="#787A80"/>
<path d="M99.6679 1.66669C98.563 1.66669 97.6665 2.56321 97.6665 3.66808C97.6665 4.77294 98.563 5.68822 99.6679 5.68822C100.773 5.68822 101.669 4.77294 101.669 3.66808C101.669 2.56321 100.772 1.66669 99.6679 1.66669Z" fill="#787A80"/>
</svg>
