<svg width="14" height="15" viewBox="0 0 14 15" fill="none" xmlns="http://www.w3.org/2000/svg">
<path d="M12.25 6.33329H1.75M9.33333 1.66663V3.99996M4.66667 1.66663V3.99996M4.55 13.3333H9.45C10.4301 13.3333 10.9201 13.3333 11.2945 13.1426C11.6238 12.9748 11.8915 12.7071 12.0593 12.3778C12.25 12.0034 12.25 11.5134 12.25 10.5333V5.63329C12.25 4.6532 12.25 4.16315 12.0593 3.78881C11.8915 3.45953 11.6238 3.19181 11.2945 3.02403C10.9201 2.83329 10.4301 2.83329 9.45 2.83329H4.55C3.56991 2.83329 3.07986 2.83329 2.70552 3.02403C2.37623 3.19181 2.10852 3.45953 1.94074 3.78881C1.75 4.16315 1.75 4.6532 1.75 5.63329V10.5333C1.75 11.5134 1.75 12.0034 1.94074 12.3778C2.10852 12.7071 2.37623 12.9748 2.70552 13.1426C3.07986 13.3333 3.56991 13.3333 4.55 13.3333Z" stroke="#0A20E6" stroke-width="1.16667" stroke-linecap="round" stroke-linejoin="round"/>
</svg>
